<?xml version="1.0" encoding="UTF-8" standalone="no"?>
<svg
   xmlns:dc="http://purl.org/dc/elements/1.1/"
   xmlns:cc="http://creativecommons.org/ns#"
   xmlns:rdf="http://www.w3.org/1999/02/22-rdf-syntax-ns#"
   xmlns:svg="http://www.w3.org/2000/svg"
   xmlns="http://www.w3.org/2000/svg"
   id="svg8"
   version="1.1"
   viewBox="0 0 210 297"
   height="297mm"
   width="210mm">
  <defs
     id="defs2" />
  <metadata
     id="metadata5">
    <rdf:RDF>
      <cc:Work
         rdf:about="">
        <dc:format>image/svg+xml</dc:format>
        <dc:type
           rdf:resource="http://purl.org/dc/dcmitype/StillImage" />
        <dc:title></dc:title>
      </cc:Work>
    </rdf:RDF>
  </metadata>
  <g
     id="layer1">
    <path
       transform="scale(0.26458333)"
       id="path830"
       d="m -143.42836,811.06638 c -4.96661,-1.47067 -9.40643,-5.29971 -11.01191,-9.497 -0.65706,-1.7178 -0.57308,-32.25351 0.18662,-67.85714 2.00181,-93.81523 3.80458,-235.17591 3.0886,-242.18686 -0.49723,-4.86898 -2.19774,-7.81704 -8.86649,-15.37128 -6.41413,-7.26582 -9.00581,-11.64976 -11.64015,-19.68989 -3.06801,-9.36368 -3.37162,-12.64247 -3.20656,-34.62871 0.21318,-28.39441 6.56827,-95 9.06432,-95 1.35037,0 2.8329,22.79344 3.06627,47.14286 0.26738,27.89889 1.44775,38.66277 4.446,40.54325 1.87337,1.17497 2.97172,1.03734 4.52875,-0.56747 1.62235,-1.67213 2.23931,-9.49501 2.92742,-37.11864 0.96133,-38.59217 1.79577,-50 3.65732,-50 1.86753,0 2.63575,8.68091 4.29087,48.48712 0.90614,21.79291 2.13256,37.09298 3.06316,38.21429 1.85647,2.23691 7.79895,2.4807 9.10135,0.37338 0.50873,-0.82315 1.539,-20.26958 2.28947,-43.21429 0.75048,-22.9447 1.67897,-42.62871 2.06331,-43.74224 2.25651,-6.53754 3.71078,4.8319 5.02519,39.28688 0.80679,21.1486 1.93328,40.69764 2.5033,43.44232 1.16042,5.58744 4.97073,7.36437 7.09805,3.31015 0.74636,-1.4224 2.08778,-18.97904 2.98092,-39.01475 1.76704,-39.63951 2.56291,-48.57143 4.32793,-48.57143 3.50985,0 8.870399,49.83683 9.065939,84.28571 0.115486,20.34413 -0.401458,28.64858 -2.245385,36.07145 -3.119784,12.55895 -9.695474,25.42568 -17.098714,33.45725 -4.98145,5.40423 -6.0904,7.72446 -6.94123,14.52297 -1.79276,14.3249 -1.3972,54.02852 1.81359,182.03896 l 3.14473,125.37636 -4.07053,4.24871 c -2.38671,2.4912 -6.18305,4.60316 -9.17744,5.10554 -2.8088,0.47125 -6.0712,1.06032 -7.24977,1.30905 -1.17857,0.24871 -3.97979,-0.0917 -6.22493,-0.75655 z"
       style="opacity:1;fill:#333333;fill-opacity:0;stroke:#0000ff;stroke-width:0.08098987;stroke-linecap:butt;stroke-linejoin:miter;stroke-miterlimit:4;stroke-dasharray:none;stroke-opacity:0;paint-order:fill markers stroke" />
    <path
       transform="scale(0.26458333)"
       id="path832"
       d="m -143.42836,811.06638 c -4.96661,-1.47067 -9.40643,-5.29971 -11.01191,-9.497 -0.65706,-1.7178 -0.57308,-32.25351 0.18662,-67.85714 2.00181,-93.81523 3.80458,-235.17591 3.0886,-242.18686 -0.49723,-4.86898 -2.19774,-7.81704 -8.86649,-15.37128 -6.41413,-7.26582 -9.00581,-11.64976 -11.64015,-19.68989 -3.06801,-9.36368 -3.37162,-12.64247 -3.20656,-34.62871 0.21318,-28.39441 6.56827,-95 9.06432,-95 1.35037,0 2.8329,22.79344 3.06627,47.14286 0.26738,27.89889 1.44775,38.66277 4.446,40.54325 1.87337,1.17497 2.97172,1.03734 4.52875,-0.56747 1.62235,-1.67213 2.23931,-9.49501 2.92742,-37.11864 0.96133,-38.59217 1.79577,-50 3.65732,-50 1.86753,0 2.63575,8.68091 4.29087,48.48712 0.90614,21.79291 2.13256,37.09298 3.06316,38.21429 1.85647,2.23691 7.79895,2.4807 9.10135,0.37338 0.50873,-0.82315 1.539,-20.26958 2.28947,-43.21429 0.75048,-22.9447 1.67897,-42.62871 2.06331,-43.74224 2.25651,-6.53754 3.71078,4.8319 5.02519,39.28688 0.80679,21.1486 1.93328,40.69764 2.5033,43.44232 1.16042,5.58744 4.97073,7.36437 7.09805,3.31015 0.74636,-1.4224 2.08778,-18.97904 2.98092,-39.01475 1.76704,-39.63951 2.56291,-48.57143 4.32793,-48.57143 3.50985,0 8.870399,49.83683 9.065939,84.28571 0.115486,20.34413 -0.401458,28.64858 -2.245385,36.07145 -3.119784,12.55895 -9.695474,25.42568 -17.098714,33.45725 -4.98145,5.40423 -6.0904,7.72446 -6.94123,14.52297 -1.79276,14.3249 -1.3972,54.02852 1.81359,182.03896 l 3.14473,125.37636 -4.07053,4.24871 c -2.38671,2.4912 -6.18305,4.60316 -9.17744,5.10554 -2.8088,0.47125 -6.0712,1.06032 -7.24977,1.30905 -1.17857,0.24871 -3.97979,-0.0917 -6.22493,-0.75655 z"
       style="opacity:1;fill:#333333;fill-opacity:0;stroke:#0000ff;stroke-width:0.08098987;stroke-linecap:butt;stroke-linejoin:miter;stroke-miterlimit:4;stroke-dasharray:none;stroke-opacity:0;paint-order:fill markers stroke" />
    <path
       transform="scale(0.26458333)"
       id="path834"
       d="m -143.42836,811.06638 c -4.96661,-1.47067 -9.40643,-5.29971 -11.01191,-9.497 -0.65706,-1.7178 -0.57308,-32.25351 0.18662,-67.85714 2.00181,-93.81523 3.80458,-235.17591 3.0886,-242.18686 -0.49723,-4.86898 -2.19774,-7.81704 -8.86649,-15.37128 -6.41413,-7.26582 -9.00581,-11.64976 -11.64015,-19.68989 -3.06801,-9.36368 -3.37162,-12.64247 -3.20656,-34.62871 0.21318,-28.39441 6.56827,-95 9.06432,-95 1.35037,0 2.8329,22.79344 3.06627,47.14286 0.26738,27.89889 1.44775,38.66277 4.446,40.54325 1.87337,1.17497 2.97172,1.03734 4.52875,-0.56747 1.62235,-1.67213 2.23931,-9.49501 2.92742,-37.11864 0.96133,-38.59217 1.79577,-50 3.65732,-50 1.86753,0 2.63575,8.68091 4.29087,48.48712 0.90614,21.79291 2.13256,37.09298 3.06316,38.21429 1.85647,2.23691 7.79895,2.4807 9.10135,0.37338 0.50873,-0.82315 1.539,-20.26958 2.28947,-43.21429 0.75048,-22.9447 1.67897,-42.62871 2.06331,-43.74224 2.25651,-6.53754 3.71078,4.8319 5.02519,39.28688 0.80679,21.1486 1.93328,40.69764 2.5033,43.44232 1.16042,5.58744 4.97073,7.36437 7.09805,3.31015 0.74636,-1.4224 2.08778,-18.97904 2.98092,-39.01475 1.76704,-39.63951 2.56291,-48.57143 4.32793,-48.57143 3.50985,0 8.870399,49.83683 9.065939,84.28571 0.115486,20.34413 -0.401458,28.64858 -2.245385,36.07145 -3.119784,12.55895 -9.695474,25.42568 -17.098714,33.45725 -4.98145,5.40423 -6.0904,7.72446 -6.94123,14.52297 -1.79276,14.3249 -1.3972,54.02852 1.81359,182.03896 l 3.14473,125.37636 -4.07053,4.24871 c -2.38671,2.4912 -6.18305,4.60316 -9.17744,5.10554 -2.8088,0.47125 -6.0712,1.06032 -7.24977,1.30905 -1.17857,0.24871 -3.97979,-0.0917 -6.22493,-0.75655 z"
       style="opacity:1;fill:#333333;fill-opacity:0;stroke:#0000ff;stroke-width:0.08098987;stroke-linecap:butt;stroke-linejoin:miter;stroke-miterlimit:4;stroke-dasharray:none;stroke-opacity:0;paint-order:fill markers stroke" />
    <path
       transform="scale(0.26458333)"
       id="path836"
       d="m -143.42836,811.06638 c -4.96661,-1.47067 -9.40643,-5.29971 -11.01191,-9.497 -0.65706,-1.7178 -0.57308,-32.25351 0.18662,-67.85714 2.00181,-93.81523 3.80458,-235.17591 3.0886,-242.18686 -0.49723,-4.86898 -2.19774,-7.81704 -8.86649,-15.37128 -6.41413,-7.26582 -9.00581,-11.64976 -11.64015,-19.68989 -3.06801,-9.36368 -3.37162,-12.64247 -3.20656,-34.62871 0.21318,-28.39441 6.56827,-95 9.06432,-95 1.35037,0 2.8329,22.79344 3.06627,47.14286 0.26738,27.89889 1.44775,38.66277 4.446,40.54325 1.87337,1.17497 2.97172,1.03734 4.52875,-0.56747 1.62235,-1.67213 2.23931,-9.49501 2.92742,-37.11864 0.96133,-38.59217 1.79577,-50 3.65732,-50 1.86753,0 2.63575,8.68091 4.29087,48.48712 0.90614,21.79291 2.13256,37.09298 3.06316,38.21429 1.85647,2.23691 7.79895,2.4807 9.10135,0.37338 0.50873,-0.82315 1.539,-20.26958 2.28947,-43.21429 0.75048,-22.9447 1.67897,-42.62871 2.06331,-43.74224 2.25651,-6.53754 3.71078,4.8319 5.02519,39.28688 0.80679,21.1486 1.93328,40.69764 2.5033,43.44232 1.16042,5.58744 4.97073,7.36437 7.09805,3.31015 0.74636,-1.4224 2.08778,-18.97904 2.98092,-39.01475 1.76704,-39.63951 2.56291,-48.57143 4.32793,-48.57143 3.50985,0 8.870399,49.83683 9.065939,84.28571 0.115486,20.34413 -0.401458,28.64858 -2.245385,36.07145 -3.119784,12.55895 -9.695474,25.42568 -17.098714,33.45725 -4.98145,5.40423 -6.0904,7.72446 -6.94123,14.52297 -1.79276,14.3249 -1.3972,54.02852 1.81359,182.03896 l 3.14473,125.37636 -4.07053,4.24871 c -2.38671,2.4912 -6.18305,4.60316 -9.17744,5.10554 -2.8088,0.47125 -6.0712,1.06032 -7.24977,1.30905 -1.17857,0.24871 -3.97979,-0.0917 -6.22493,-0.75655 z"
       style="opacity:1;fill:#666666;fill-opacity:0;stroke:#0000ff;stroke-width:0.08098987;stroke-linecap:butt;stroke-linejoin:miter;stroke-miterlimit:4;stroke-dasharray:none;stroke-opacity:0;paint-order:fill markers stroke" />
    <path
       transform="scale(0.26458333)"
       id="path838"
       d="m -143.42836,811.06638 c -4.96661,-1.47067 -9.40643,-5.29971 -11.01191,-9.497 -0.65706,-1.7178 -0.57308,-32.25351 0.18662,-67.85714 2.00181,-93.81523 3.80458,-235.17591 3.0886,-242.18686 -0.49723,-4.86898 -2.19774,-7.81704 -8.86649,-15.37128 -6.41413,-7.26582 -9.00581,-11.64976 -11.64015,-19.68989 -3.06801,-9.36368 -3.37162,-12.64247 -3.20656,-34.62871 0.21318,-28.39441 6.56827,-95 9.06432,-95 1.35037,0 2.8329,22.79344 3.06627,47.14286 0.26738,27.89889 1.44775,38.66277 4.446,40.54325 1.87337,1.17497 2.97172,1.03734 4.52875,-0.56747 1.62235,-1.67213 2.23931,-9.49501 2.92742,-37.11864 0.96133,-38.59217 1.79577,-50 3.65732,-50 1.86753,0 2.63575,8.68091 4.29087,48.48712 0.90614,21.79291 2.13256,37.09298 3.06316,38.21429 1.85647,2.23691 7.79895,2.4807 9.10135,0.37338 0.50873,-0.82315 1.539,-20.26958 2.28947,-43.21429 0.75048,-22.9447 1.67897,-42.62871 2.06331,-43.74224 2.25651,-6.53754 3.71078,4.8319 5.02519,39.28688 0.80679,21.1486 1.93328,40.69764 2.5033,43.44232 1.16042,5.58744 4.97073,7.36437 7.09805,3.31015 0.74636,-1.4224 2.08778,-18.97904 2.98092,-39.01475 1.76704,-39.63951 2.56291,-48.57143 4.32793,-48.57143 3.50985,0 8.870399,49.83683 9.065939,84.28571 0.115486,20.34413 -0.401458,28.64858 -2.245385,36.07145 -3.119784,12.55895 -9.695474,25.42568 -17.098714,33.45725 -4.98145,5.40423 -6.0904,7.72446 -6.94123,14.52297 -1.79276,14.3249 -1.3972,54.02852 1.81359,182.03896 l 3.14473,125.37636 -4.07053,4.24871 c -2.38671,2.4912 -6.18305,4.60316 -9.17744,5.10554 -2.8088,0.47125 -6.0712,1.06032 -7.24977,1.30905 -1.17857,0.24871 -3.97979,-0.0917 -6.22493,-0.75655 z"
       style="opacity:1;fill:#666666;fill-opacity:0;stroke:#0000ff;stroke-width:0.08098987;stroke-linecap:butt;stroke-linejoin:miter;stroke-miterlimit:4;stroke-dasharray:none;stroke-opacity:0;paint-order:fill markers stroke" />
    <g
       transform="translate(-31.372024,-13.229167)"
       id="g846">
      <path
         style="fill:#808080;fill-opacity:1;stroke:none;stroke-width:0.26458332px;stroke-linecap:butt;stroke-linejoin:miter;stroke-opacity:1"
         d="m 90.249926,185.07712 c 0,0 -0.755951,1.70089 -0.755951,1.70089 0,0 0.141744,2.12611 0.141744,2.12611 0,0 1.275668,2.12612 1.275668,2.12612 0,0 1.748138,1.46466 1.748138,1.46466 0,0 1.88988,0.85045 1.88988,0.85045 0,0 2.315107,0.0472 2.315107,0.0472 0,0 1.417414,-0.94494 1.417414,-0.94494 0,0 43.420014,-45.68787 43.420014,-45.68787 0,0 7.18155,-7.18155 7.18155,-7.18155 0,0 3.9215,-3.73251 3.9215,-3.73251 0,0 3.16555,-2.50409 3.16555,-2.50409 1.27567,0.11024 2.55171,0.22052 4.1153,-0.033 1.56359,-0.25354 3.39731,-0.86479 5.12952,-1.68368 1.73221,-0.81888 3.35465,-1.84275 5.25219,-3.42536 1.89754,-1.58261 4.07126,-3.72483 6.32325,-6.15005 2.25199,-2.42523 4.58304,-5.13429 6.71696,-7.77215 2.13391,-2.63787 4.07117,-5.20514 4.95312,-6.60661 0.88195,-1.40148 0.7087,-1.63773 0.51971,-1.81102 -0.18898,-0.17329 -0.39357,-0.28345 -0.87449,-0.008 -0.48092,0.2759 -1.2358,0.93642 -4.0083,3.45688 -2.7725,2.52045 -7.55885,6.89744 -10.13379,9.20468 -2.57494,2.30725 -2.93715,2.54347 -3.25223,2.57508 -0.31508,0.0316 -0.58262,-0.14151 -0.69297,-0.39377 -0.11034,-0.25226 -0.0631,-0.58267 0.15739,-0.97642 0.22053,-0.39375 0.61431,-0.85054 2.99941,-3.42455 2.3851,-2.57402 6.76509,-7.26912 9.11851,-9.84265 2.35341,-2.57352 2.68622,-3.03311 2.82004,-3.38728 0.13383,-0.35417 0.0708,-0.60625 -0.11177,-0.78265 -0.18259,-0.17639 -0.44707,-0.26455 -0.78595,-0.16215 -0.33889,0.1024 -0.73214,0.40127 -3.37159,2.86738 -2.63945,2.46612 -7.51871,7.09353 -10.14091,9.55826 -2.6222,2.46473 -2.98442,2.76395 -3.30729,2.89792 -0.32286,0.13396 -0.60617,0.10248 -0.87418,-0.0551 -0.268,-0.15761 -0.51965,-0.44071 -0.62997,-0.75591 -0.11032,-0.3152 -0.0788,-0.66147 0.0866,-1.00013 0.16543,-0.33866 0.46469,-0.66942 2.94385,-3.3532 2.47916,-2.68379 7.14349,-7.72631 9.55303,-10.40362 2.40955,-2.677307 2.56705,-2.992299 2.53565,-3.25981 -0.0314,-0.26751 -0.25198,-0.488099 -0.51975,-0.614177 -0.26777,-0.126079 -0.58248,-0.157552 -3.39689,2.420347 -2.81441,2.57789 -8.11558,7.75322 -10.89521,10.37548 -2.77962,2.62226 -3.03159,2.68525 -3.30744,2.63013 -0.27585,-0.0551 -0.57467,-0.22811 -0.7323,-0.49609 -0.15763,-0.26797 -0.17335,-0.62986 -0.0236,-0.98433 0.14971,-0.35446 0.46467,-0.70092 3.0226,-3.38477 2.55792,-2.68386 7.36395,-7.71049 9.80497,-10.38776 2.44101,-2.67727 2.51976,-3.008016 2.46475,-3.267715 -0.055,-0.259699 -0.24405,-0.448731 -0.5198,-0.425171 -0.27575,0.02356 -0.63762,0.25956 -3.08825,2.205878 -2.45063,1.946318 -6.98306,5.597448 -10.26679,8.361438 -3.28372,2.76399 -5.31525,4.63804 -7.04772,6.35475 -1.73248,1.71672 -3.1655,3.27571 -4.33264,5.02747 -1.16715,1.75176 -2.06151,3.6817 -2.37651,5.493 -0.315,1.8113 -0.0473,3.49631 -0.2281,4.66967 -0.18081,1.17336 -0.7797,1.80297 -3.28443,4.29194 -2.50472,2.48897 -6.89742,6.81869 -15.81939,15.47319 -8.92196,8.65451 -22.4028,21.66234 -29.85996,28.83602 -7.457166,7.17368 -8.906054,8.52808 -9.630611,9.20538 -0.724557,0.6773 -0.724603,0.67734 -0.724603,0.67734 z"
         id="path826" />
      <path
         style="fill:#808080;fill-opacity:1;stroke:none;stroke-width:0.26458332px;stroke-linecap:butt;stroke-linejoin:miter;stroke-opacity:1"
         d="m 181.30439,194.32151 c 0.3661,0.14565 1.09842,0.43701 1.94907,0.42911 0.85066,-0.008 1.81905,-0.31494 2.68917,-0.85438 0.87013,-0.53944 1.64192,-1.31123 2.17943,-2.08996 0.5375,-0.77873 0.84835,-1.58376 0.95459,-2.43011 0.10624,-0.84635 0.0117,-1.7444 -0.21271,-2.36238 -0.22443,-0.61799 -0.57892,-0.95673 -7.40654,-7.3987 -6.82762,-6.44198 -20.14256,-19.00056 -28.02492,-26.34744 -7.88236,-7.34689 -10.33924,-9.48878 -11.98889,-11.49285 -1.64966,-2.00407 -2.4923,-3.87046 -3.63794,-5.50424 -1.14564,-1.63378 -2.59479,-3.03568 -7.14182,-7.46461 -4.54703,-4.42892 -12.19416,-11.88704 -17.39524,-16.83612 -5.20107,-4.94909 -7.95722,-7.39025 -10.25257,-9.40213 -2.29536,-2.01188 -4.130237,-3.594759 -5.96096,-4.968776 -1.830723,-1.374017 -3.65779,-2.539563 -4.771776,-3.114505 -1.113985,-0.574943 -1.531667,-0.558877 -1.838701,-0.377895 -0.307035,0.180982 -0.511764,0.527446 -0.75465,0.778843 -0.242887,0.251397 -0.528822,0.410251 -0.729648,0.579517 -0.200827,0.169266 -0.318876,0.350277 -0.318959,0.531526 -8.3e-5,0.181249 0.117854,0.362089 0.09425,0.480362 -0.0236,0.118272 -0.188726,0.173314 -0.314717,0.267739 -0.125991,0.09443 -0.212553,0.228201 -0.204723,0.433177 0.0078,0.204975 0.109999,0.480039 0.07855,0.724324 -0.03145,0.244285 -0.196612,0.456643 -0.240025,0.681143 -0.04341,0.2245 0.03525,0.460474 0.12584,0.637794 0.09059,0.17732 0.192819,0.295269 0.16135,0.484465 -0.03147,0.189195 -0.196535,0.448586 -0.228142,0.677026 -0.03161,0.22845 0.07066,0.42511 0.165252,0.53552 0.0946,0.1104 0.181099,0.134 0.15731,0.22042 -0.02379,0.0864 -0.172818,0.25201 -0.212304,0.4253 -0.03949,0.17329 0.02343,0.36205 0.149734,0.54356 0.126301,0.18152 0.31459,0.35412 0.349617,0.48276 0.03503,0.12864 -0.08404,0.21245 -0.135372,0.34629 -0.05133,0.13384 -0.03466,0.31732 0.06011,0.48462 0.09476,0.16729 0.267037,0.31731 0.283855,0.47884 0.01682,0.16153 -0.122235,0.33396 -0.166883,0.51777 -0.04465,0.18381 0.0054,0.37844 0.111426,0.45653 0.106026,0.0781 0.267205,0.0392 0.328452,0.15586 0.06125,0.11669 0.02225,0.38967 0.03055,0.60416 0.0083,0.21449 0.06391,0.37019 0.169915,0.45947 0.106004,0.0893 0.261561,0.11149 0.32007,0.2589 0.05851,0.14742 0.01954,0.42017 0.03901,0.68484 0.01946,0.26466 0.09732,0.52046 0.192117,0.64312 0.0948,0.12266 0.206012,0.11154 0.300118,0.26523 0.09411,0.15369 0.173048,0.48073 0.241919,0.76994 0.06887,0.2892 0.131578,0.55714 0.265316,0.73553 0.133738,0.17838 0.339496,0.27292 0.456484,0.43432 0.116988,0.16141 0.144809,0.38955 0.203327,0.69332 0.05852,0.30377 0.147464,0.68179 0.286736,0.89913 0.139273,0.21734 0.328428,0.27298 0.501064,0.47338 0.172635,0.20041 0.328456,0.54544 0.495551,0.79616 0.167095,0.25071 0.345109,0.40649 0.503859,0.54855 0.158751,0.14205 0.297808,0.27 0.353582,0.45938 0.05577,0.18939 0.02797,0.43962 0.103165,0.65979 0.07519,0.22017 0.253109,0.40919 0.406325,0.53457 0.153217,0.12538 0.281152,0.18657 0.395344,0.31184 0.114192,0.12527 0.214306,0.31438 0.320193,0.53172 0.105888,0.21734 0.217077,0.46195 0.373096,0.64031 0.156019,0.17836 0.356225,0.28959 0.497345,0.463 0.141119,0.17342 0.222733,0.40876 0.304948,0.59162 0.08221,0.18286 0.164785,0.31261 0.27517,0.41908 0.110385,0.10647 0.247903,0.18898 0.397626,0.39775 0.149723,0.20878 0.310956,0.54305 0.444844,0.74397 0.133887,0.20093 0.240107,0.26782 0.342669,0.29147 0.102563,0.0237 0.200856,0.004 0.25986,0.14543 0.059,0.14144 0.0787,0.44483 0.157451,0.65763 0.07875,0.21279 0.21638,0.3347 0.340623,0.37608 0.124244,0.0414 0.234365,0.002 0.321935,0.0723 0.08757,0.0702 0.156284,0.26021 0.225239,0.43951 0.06896,0.17929 0.139703,0.35223 0.263927,0.45282 0.124223,0.10058 0.301065,0.12809 0.421155,0.27955 0.120091,0.15145 0.183068,0.42698 0.320993,0.60042 0.137925,0.17344 0.350265,0.24422 0.481535,0.36973 0.13127,0.12551 0.18372,0.31515 0.3138,0.47289 0.13009,0.15773 0.33838,0.28742 0.5156,0.41344 0.17723,0.12602 0.3228,0.24798 0.40162,0.3976 0.0788,0.14962 0.0906,0.32657 0.1523,0.44722 0.0617,0.12066 0.17045,0.1828 0.28276,0.23207 0.11231,0.0493 0.22635,0.0846 0.29923,0.22831 0.0729,0.14366 0.10436,0.39542 0.17327,0.55899 0.0689,0.16357 0.17506,0.23828 0.28718,0.26245 0.11212,0.0242 0.23855,-0.004 0.33291,0.0505 0.0944,0.0549 0.16134,0.19283 0.23031,0.32487 0.069,0.13204 0.13969,0.25776 0.21461,0.33666 0.0749,0.0789 0.15347,0.11033 0.19684,0.22451 0.0434,0.11419 0.0512,0.31072 0.14391,0.41525 0.0927,0.10453 0.26953,0.11631 0.37971,0.1634 0.11018,0.0471 0.15349,0.12975 0.19495,0.26194 0.0415,0.13218 0.0807,0.31266 0.17926,0.41916 0.0986,0.10651 0.25577,0.13795 0.38966,0.16946 0.13389,0.0315 0.24406,0.063 0.3012,0.15935 0.0571,0.0964 0.0611,0.25764 0.11031,0.37794 0.0492,0.12029 0.14349,0.19884 0.28354,0.23632 0.14005,0.0375 0.32475,0.0336 0.51759,0.20666 0.19284,0.17309 0.39364,0.52352 0.59453,0.74022 0.2009,0.21669 0.40154,0.29931 0.57285,0.37217 0.1713,0.0728 0.31296,0.13581 0.37209,0.26962 0.0591,0.13381 0.0355,0.33834 0.0985,0.49211 0.063,0.15377 0.21236,0.25596 0.3661,0.31114 0.15373,0.0552 0.311,0.063 0.40744,0.13571 0.0964,0.0727 0.13186,0.21047 0.21034,0.40098 0.0785,0.1905 0.20888,0.4513 0.40593,0.61685 0.19706,0.16555 0.46445,0.2442 0.65736,0.33471 0.1929,0.0905 0.31098,0.19285 0.38587,0.34645 0.0749,0.15361 0.10635,0.35804 0.20094,0.50787 0.0946,0.14984 0.25179,0.24416 0.41735,0.27568 0.16556,0.0315 0.33863,6e-5 0.50385,0.13372 0.16522,0.13367 0.32277,0.43301 0.571,0.64975 0.24823,0.21674 0.5865,0.35047 0.77158,0.48028 0.18508,0.12981 0.21656,0.25574 0.2757,0.3859 0.0591,0.13016 0.14552,0.26367 0.28354,0.36227 0.13801,0.0986 0.32663,0.16147 0.46443,0.27557 0.13781,0.11409 0.22439,0.27937 0.35446,0.41736 0.13008,0.13799 0.30299,0.24804 0.44047,0.29596 0.13747,0.0479 0.25648,0.0309 0.32729,0.12516 0.0708,0.0943 0.10232,0.29909 0.18112,0.46466 0.0788,0.16556 0.20456,0.29132 0.37805,0.35441 0.1735,0.0631 0.39365,0.0631 0.51569,0.17709 0.12204,0.11399 0.14568,0.34235 0.29152,0.53554 0.14584,0.1932 0.41314,0.35044 0.62137,0.41437 0.20824,0.0639 0.37472,0.0306 0.50031,0.0343 0.12559,0.004 0.2197,0.0428 0.28067,0.1653 0.061,0.1225 0.0888,0.32824 0.16677,0.49549 0.078,0.16725 0.21696,0.30622 0.40654,0.3787 0.18957,0.0725 0.43422,0.0836 0.67915,0.21715 0.24492,0.13354 0.48991,0.38965 0.74491,0.5785 0.25501,0.18885 0.52458,0.3124 0.71614,0.39473 0.19157,0.0823 0.32073,0.12928 0.44049,0.26569 0.11976,0.13641 0.23657,0.36448 0.4234,0.4815 0.18682,0.11702 0.45364,0.12269 0.64844,0.17829 0.19481,0.0556 0.32288,0.16138 0.47893,0.29512 0.15604,0.13375 0.33951,0.29501 0.52622,0.37583 0.18671,0.0808 0.37584,0.0808 0.57899,0.15593 0.20314,0.0751 0.42031,0.22545 0.59297,0.37024 0.17266,0.14479 0.30062,0.28386 0.44008,0.33403 0.13946,0.0502 0.28957,0.0113 0.38895,0.0597 0.0994,0.0484 0.14806,0.18471 0.23172,0.21742 0.0837,0.0327 0.20151,-0.038 0.32723,0.013 0.12573,0.051 0.25979,0.22447 0.39591,0.2658 0.13612,0.0413 0.27372,-0.0491 0.39158,-0.0453 0.11787,0.004 0.21644,0.1024 0.33881,0.11024 0.12238,0.008 0.26776,-0.0747 0.42499,-0.0472 0.15722,0.0275 0.3267,0.16542 0.50415,0.17325 0.17745,0.008 0.36231,-0.1141 0.5194,-0.091 0.15709,0.0231 0.28682,0.19174 0.42568,0.23564 0.13887,0.0439 0.28619,-0.0367 0.40986,-0.0215 0.12367,0.0152 0.22401,0.12667 0.37472,0.11824 0.15071,-0.008 0.35078,-0.13625 0.55102,-0.17799 0.20024,-0.0417 0.40088,0.003 0.55555,-0.0321 0.15466,-0.0349 0.2632,-0.14901 0.39098,-0.1685 0.12777,-0.0195 0.27558,0.0558 0.37043,0.0724 0.0949,0.0166 0.13656,-0.0251 0.28109,-0.0573 0.14452,-0.0322 0.39839,-0.0555 0.72833,0.0432 0.32995,0.0987 0.73948,0.31918 1.27112,0.73267 0.53164,0.41348 1.18497,1.01958 7.26128,7.27438 6.0763,6.2548 17.56875,18.15127 25.20311,26.06124 7.63436,7.90997 11.40722,11.82991 13.29378,13.79001 1.88656,1.9601 1.88664,1.96018 2.25275,2.10584 z"
         id="path840" />
    </g>
  </g>
</svg>
